<svg width="390" height="390" viewBox="0 0 390 390" fill="none" xmlns="http://www.w3.org/2000/svg">
<rect width="390" height="390" fill="#CFCFCF"/>
<path d="M180.229 10.4699C185.698 -2.66239 204.302 -2.66239 209.771 10.4699L215.447 24.1011C219.82 34.6039 233.45 37.315 241.51 29.2853L251.97 18.864C262.048 8.82408 279.236 15.9435 279.263 30.1688L279.291 44.9347C279.312 56.3117 290.866 64.0321 301.386 59.6981L315.038 54.0732C328.191 48.6541 341.346 61.809 335.927 74.9618L330.302 88.6144C325.968 99.1336 333.688 110.688 345.065 110.709L359.831 110.737C374.057 110.764 381.176 127.952 371.136 138.03L360.715 148.49C352.685 156.55 355.396 170.18 365.899 174.553L379.53 180.229C392.662 185.698 392.662 204.302 379.53 209.771L365.899 215.447C355.396 219.82 352.685 233.45 360.715 241.51L371.136 251.97C381.176 262.048 374.057 279.236 359.831 279.263L345.065 279.291C333.688 279.312 325.968 290.866 330.302 301.386L335.927 315.038C341.346 328.191 328.191 341.346 315.038 335.927L301.386 330.302C290.866 325.968 279.312 333.688 279.291 345.065L279.263 359.831C279.236 374.057 262.048 381.176 251.97 371.136L241.51 360.715C233.45 352.685 219.82 355.396 215.447 365.899L209.771 379.53C204.302 392.662 185.698 392.662 180.229 379.53L174.553 365.899C170.18 355.396 156.55 352.685 148.49 360.715L138.03 371.136C127.952 381.176 110.764 374.057 110.737 359.831L110.709 345.065C110.688 333.688 99.1336 325.968 88.6144 330.302L74.9618 335.927C61.809 341.346 48.6541 328.191 54.0732 315.038L59.6981 301.386C64.0321 290.866 56.3117 279.312 44.9347 279.291L30.1688 279.263C15.9435 279.236 8.82408 262.048 18.864 251.97L29.2854 241.51C37.315 233.45 34.6039 219.82 24.1011 215.447L10.4699 209.771C-2.66239 204.302 -2.66239 185.698 10.4699 180.229L24.1011 174.553C34.6039 170.18 37.315 156.55 29.2853 148.49L18.864 138.03C8.82408 127.952 15.9435 110.764 30.1688 110.737L44.9347 110.709C56.3118 110.688 64.0321 99.1336 59.6981 88.6144L54.0732 74.9618C48.6541 61.809 61.809 48.6541 74.9618 54.0732L88.6144 59.6981C99.1336 64.0321 110.688 56.3117 110.709 44.9347L110.737 30.1688C110.764 15.9435 127.952 8.82408 138.03 18.864L148.49 29.2853C156.55 37.315 170.18 34.6039 174.553 24.1011L180.229 10.4699Z" fill="url(#paint0_linear_3_40217)"/>
<defs>
<linearGradient id="paint0_linear_3_40217" x1="85" y1="85" x2="85" y2="85" gradientUnits="userSpaceOnUse">
<stop stop-color="#5BBFE5"/>
<stop offset="0.522168" stop-color="#B976E6"/>
<stop offset="1" stop-color="#EA4D58"/>
</linearGradient>
</defs>
</svg>
